<svg width="148" height="527" viewBox="0 0 148 527" fill="none" xmlns="http://www.w3.org/2000/svg">
<path d="M11.1993 59.2947C53.6183 59.2947 88.1368 93.8132 88.1368 136.232V526.9H86.9093V136.232C86.9093 94.5036 53.0046 60.5222 11.1993 60.5222C7.39521 60.5222 3.6556 60.8054 0.00012207 61.3503V60.1091C3.65696 59.5734 7.39631 59.2947 11.1993 59.2947Z" fill="white"/>
<path d="M11.1993 79.085C42.7258 79.085 68.3467 104.705 68.3468 136.231V526.9H67.1954V136.231C67.1953 105.395 42.0354 80.3125 11.1993 80.3125C7.36497 80.3125 3.61942 80.6999 0.00012207 81.4385V80.1855C3.62231 79.4639 7.36721 79.085 11.1993 79.085Z" fill="white"/>
<path d="M11.1992 39.5809C64.5104 39.5809 107.927 82.9201 107.927 136.231V526.9H106.699V136.231C106.699 83.5338 63.8968 40.7313 11.1992 40.7313C7.4109 40.7313 3.67382 40.9535 0 41.3836V40.2254C3.67478 39.7999 7.41182 39.5809 11.1992 39.5809Z" fill="white"/>
<path d="M11.1993 19.7903C75.4029 19.7904 127.64 72.0281 127.64 136.232V526.9H126.489V136.232C126.489 72.6417 74.7893 20.9408 11.1993 20.9407C7.42155 20.9407 3.68564 21.1251 0.00012207 21.4817V20.3264C3.68629 19.973 7.42214 19.7903 11.1993 19.7903Z" fill="white"/>
<path d="M11.1993 0C86.3719 0.000213079 147.431 61.1355 147.431 136.231V526.9H146.279V136.231C146.279 61.7492 85.6816 1.1506 11.1993 1.15039C7.42875 1.15039 3.69349 1.30776 0.00012207 1.6123V0.458984C3.69397 0.156766 7.42915 0 11.1993 0Z" fill="white"/>
</svg>
