<svg width="236" height="118" viewBox="0 0 236 118" fill="none" xmlns="http://www.w3.org/2000/svg">
<path d="M236 117.865V3.8147e-05L207.935 21.0171C195.464 30.3806 195.464 45.5624 207.935 54.9259L208.614 55.4178C210.312 56.69 210.312 58.7595 208.614 60.0487C206.894 61.3209 204.133 61.3209 202.435 60.0487L164.819 31.8564C158.912 27.429 149.316 27.429 143.408 31.8564C137.478 36.2837 137.478 43.4759 143.408 47.9032L197.682 88.5972C199.289 89.7846 199.289 91.7184 197.682 92.9228C196.098 94.1102 193.518 94.1102 191.911 92.9228L155.268 65.4429C144.789 57.606 127.837 57.606 117.38 65.4429C106.901 73.2797 106.901 86.0019 117.38 93.8388L141.349 111.802L126.841 113.295L60.9789 63.9332C53.4873 58.3015 41.3108 58.3015 33.7966 63.9332C26.3051 69.5648 26.3051 78.6909 33.7966 84.3056C37.35 86.9688 53.1026 98.775 55.3885 100.488C56.8597 101.591 56.8597 103.389 55.3659 104.508L55.298 104.559C53.8721 105.628 51.5409 105.628 50.115 104.559L43.3025 99.4535C35.0867 93.2959 21.7332 93.2959 13.4948 99.4535L0 117.865" fill="#FEF6E9"/>
</svg>
