<svg width="1287" height="675" viewBox="0 0 1287 675" fill="none" xmlns="http://www.w3.org/2000/svg">
<path opacity="0.1" d="M1287 675V0L1133.95 120.362C1065.94 173.986 1065.94 260.931 1133.95 314.554L1137.65 317.372C1146.91 324.658 1146.91 336.509 1137.65 343.892C1128.27 351.178 1113.22 351.178 1103.96 343.892L898.823 182.438C866.609 157.083 814.276 157.083 782.062 182.438C749.724 207.792 749.724 248.982 782.062 274.337L1078.04 507.387C1086.8 514.187 1086.8 525.261 1078.04 532.158C1069.4 538.959 1055.33 538.959 1046.56 532.158L846.737 374.784C789.591 329.903 697.144 329.903 640.121 374.784C582.974 419.665 582.974 492.523 640.121 537.404L770.83 640.28L691.713 648.829L332.542 366.138C291.687 333.886 225.284 333.886 184.306 366.138C143.452 398.39 143.452 450.654 184.306 482.809C203.684 498.061 289.589 565.673 302.055 575.485C310.078 581.799 310.078 592.097 301.932 598.508L301.561 598.8C293.786 604.92 281.073 604.92 273.297 598.8L236.145 569.559C191.341 534.296 118.52 534.296 73.5925 569.559L0 675" fill="#FEF6E9"/>
</svg>
